<svg xmlns="http://www.w3.org/2000/svg" viewBox="0 0 764.47 149.66"><defs><style>.cls-1{fill:aqua;}.cls-2{fill:#ff00c1;}</style></defs><g id="Layer_1" data-name="Layer 1"><path class="cls-1" d="M305.45,20.86h14.44V56.38h43.74c2.31,0,3.87-.73,4.7-2.18a11.16,11.16,0,0,0,1.24-5.54V20.76q.19-7.32-5.55-7.33H305.45V.27h62.83A17.31,17.31,0,0,1,375.65,2a15,15,0,0,1,5.94,4.89A12.8,12.8,0,0,1,384,14.23V53a17.6,17.6,0,0,1-2.22,8.42,15.8,15.8,0,0,1-14.1,8.11H305.45Z"/><path class="cls-1" d="M392.42.27H407V69.54H392.42Z"/><path class="cls-1" d="M423.74,67.86A15.07,15.07,0,0,1,417.8,63a12.74,12.74,0,0,1-2.42-7.37V14.23a12.8,12.8,0,0,1,2.42-7.38A15,15,0,0,1,423.74,2,17.11,17.11,0,0,1,431,.27h44.33a15.91,15.91,0,0,1,9.75,3q4,3,4,10.1v7.52H474.94v-.6a14.66,14.66,0,0,0-.54-4.65,2.74,2.74,0,0,0-1.53-1.83,10,10,0,0,0-3.07-.35H434.38a5.3,5.3,0,0,0-3.22,1.29c-.76.73-1.2,2.11-1.34,4.16l-.1,30.18q0,4.55,1.29,5.93a5.28,5.28,0,0,0,4.06,1.39h44.82V41.54H443V28.28h50.77V69.54H431A17.1,17.1,0,0,1,423.74,67.86Z"/><path class="cls-1" d="M502.15.27H516.7V69.54H502.15Z"/><path class="cls-1" d="M525.11.27h78.47V14.82H525.11Zm32.06,22h14.45v47.3H557.17Z"/><path class="cls-1" d="M626.63.27h20.49l35.42,69.27H665.62l-6.73-13.06H623.17l6.73-13.16h22.26L636.83,13.43l-28.7,56.11H591.21Z"/><path class="cls-1" d="M690,.27h14.45V56.38h60.06V69.54H690Z"/><path class="cls-2" d="M417.33,82.72h16.36l-34.24,66.94h-19.7l-10.14-19.89-10.13,19.89h-19.7L305.45,82.72H321.9l27.73,54.22,11.76-23.14L345.52,82.72h16.35l27.73,54.22Z"/><path class="cls-2" d="M441.19,146.55q-4.06-3.11-4.16-9.13V102.61h14v29.07c.19,2,.63,3.31,1.33,4a4.89,4.89,0,0,0,3.06,1.24H494.6a9,9,0,0,0,2.87-.34A2.73,2.73,0,0,0,499,135a11,11,0,0,0,.58-4.16V102a14,14,0,0,0-.53-4.49,2.62,2.62,0,0,0-1.53-1.77,9.86,9.86,0,0,0-2.92-.33H437a12.77,12.77,0,0,1,4.4-9.28,13.93,13.93,0,0,1,9.37-3.44h48.68A15.53,15.53,0,0,1,509,85.59q3.87,2.86,3.87,9.75V137q0,6.89-3.87,9.76a15.59,15.59,0,0,1-9.52,2.87H450.9A15.54,15.54,0,0,1,441.19,146.55Z"/><path class="cls-2" d="M521,149.66v-47h14v14.15h42.27q3.35,0,4.54-2.1a10.71,10.71,0,0,0,1.2-5.36v-6.79q.18-7.08-5.36-7.07H521V82.72h60.72a16.8,16.8,0,0,1,7.13,1.62,14.51,14.51,0,0,1,5.73,4.74,12.38,12.38,0,0,1,2.35,7.12v18.55a16.65,16.65,0,0,1-3.73,10.47,11.69,11.69,0,0,1-9.47,4.26l13.2,20.18H581l-13.1-20.18H535v20.18Z"/><path class="cls-2" d="M605.05,149.66V82.72h14.06v66.94Zm67.52-39.5a15.76,15.76,0,0,1,5.64,5.74,16.63,16.63,0,0,1,2.2,8.13v25.63h-14V128.24a10.68,10.68,0,0,0-1.2-5.41c-.79-1.37-2.31-2-4.54-2H625.42V108.06h10l21.9-25.34h15.69l-21.33,25.34h12.82A15.45,15.45,0,0,1,672.57,110.16Z"/><path class="cls-2" d="M692.7,146.55q-4.07-3.11-4.16-9.13v-7.65h14v1.91c.19,2,.64,3.31,1.34,4a5,5,0,0,0,3.16,1.24h39.11a9,9,0,0,0,2.87-.34,2.79,2.79,0,0,0,1.53-1.62,11.07,11.07,0,0,0,.57-4.16v-2.2a11.07,11.07,0,0,0-.57-4.16,2.84,2.84,0,0,0-1.53-1.63,9.4,9.4,0,0,0-2.87-.33l-43.8.09a14.18,14.18,0,0,1-6.65-1.62,13.23,13.23,0,0,1-5.06-4.69,13.55,13.55,0,0,1-2.06-7.17V96.2A13.55,13.55,0,0,1,690.6,89a13.23,13.23,0,0,1,5.06-4.69,14.18,14.18,0,0,1,6.65-1.62h48.77a15.56,15.56,0,0,1,9.47,2.87q3.91,2.86,3.92,9.75v7.27H751.08V102a14.1,14.1,0,0,0-.52-4.49,2.68,2.68,0,0,0-1.49-1.77,9.71,9.71,0,0,0-3-.33H707c-2,.12-3.22.79-3.73,2a13.82,13.82,0,0,0-.77,5.17,14.53,14.53,0,0,0,.72,5.16c.48,1.21,1.64,1.88,3.49,2h44.37a15.63,15.63,0,0,1,9.47,2.87q3.91,2.86,3.92,9.75V137q0,6.89-3.92,9.76a15.63,15.63,0,0,1-9.47,2.87H702.5A15.68,15.68,0,0,1,692.7,146.55Z"/><polygon class="cls-2" points="0 48.08 23.9 71.98 23.9 125.76 0 149.66 0 48.08"/><path class="cls-1" d="M239,48.08a47.77,47.77,0,0,1-47.8,47.8h-12v29.88l-23.9,23.9V48.08L179.26,72h12a23.9,23.9,0,1,0,0-47.8H149.39L119.51,54.06,71.7,101.85,0,30.15V.27L71.7,72,143.41.27h47.8A47.78,47.78,0,0,1,239,48.08Z"/><polygon class="cls-2" points="143.41 48.08 143.41 149.66 119.51 125.76 119.51 101.86 71.7 149.66 35.85 113.81 35.85 83.93 71.7 119.78 143.41 48.08"/><line class="cls-1" x1="23.9" y1="125.76" y2="149.66"/><rect class="cls-2" x="265.65" y="0.27" width="7.98" height="149.38"/></g></svg>